# Blender v2.93.2 OBJ File: ''
# www.blender.org
mtllib power_up.mtl
o Cube_Cube.001
v -1.000000 -0.257774 -2.000000
v -1.000000 0.212588 -1.500000
v -1.000000 0.453966 -1.000000
v -1.000000 0.695344 -0.500000
v -1.000000 1.239009 -0.500000
v -1.000000 0.997631 -1.000000
v -1.000000 0.756253 -1.500000
v 1.000000 0.695344 -0.500000
v 1.000000 0.453966 -1.000000
v 1.000000 0.212588 -1.500000
v 1.000000 0.756253 -1.500000
v 1.000000 0.997631 -1.000000
v 1.000000 1.239009 -0.500000
v -1.000000 0.707739 0.000000
v -1.000000 1.251404 0.000000
v -1.000000 -0.257774 2.000000
v 1.000000 0.707739 0.000000
v 1.000000 1.251404 0.000000
v 1.000000 -0.257774 2.000000
v 1.000000 0.285891 2.000000
v -1.000000 0.212588 1.500000
v -1.000000 0.453966 1.000000
v -1.000000 0.695344 0.500000
v -1.000000 1.239009 0.500000
v -1.000000 0.997631 1.000000
v -1.000000 0.756253 1.500000
v 1.000000 0.695344 0.500000
v 1.000000 0.453966 1.000000
v 1.000000 0.212588 1.500000
v 1.000000 0.756253 1.500000
v 1.000000 0.997631 1.000000
v 1.000000 1.239009 0.500000
v -1.000000 0.257774 -2.000000
v 1.000000 0.257774 -2.000000
v 1.000000 -0.285891 -2.000000
v -1.000000 -0.212588 -1.500000
v -1.000000 -0.453966 -1.000000
v -1.000000 -0.695344 -0.500000
v -1.000000 -1.239009 -0.500000
v -1.000000 -0.997631 -1.000000
v -1.000000 -0.756253 -1.500000
v 1.000000 -0.695344 -0.500000
v 1.000000 -0.453966 -1.000000
v 1.000000 -0.212588 -1.500000
v 1.000000 -0.756253 -1.500000
v 1.000000 -0.997631 -1.000000
v 1.000000 -1.239009 -0.500000
v -1.000000 -0.707739 0.000000
v -1.000000 -1.251404 0.000000
v -1.000000 0.257774 2.000000
v 1.000000 -0.707739 0.000000
v 1.000000 -1.251404 0.000000
v -1.000000 -0.212588 1.500000
v -1.000000 -0.453966 1.000000
v -1.000000 -0.695344 0.500000
v -1.000000 -1.239009 0.500000
v -1.000000 -0.997631 1.000000
v -1.000000 -0.756253 1.500000
v 1.000000 -0.695344 0.500000
v 1.000000 -0.453966 1.000000
v 1.000000 -0.212588 1.500000
v 1.000000 -0.756253 1.500000
v 1.000000 -0.997631 1.000000
v 1.000000 -1.239009 0.500000
v 1.000000 -0.006170 -1.719425
v -1.000000 0.000000 -1.725984
v -1.000000 0.000000 1.725984
v 1.000000 0.006170 1.719425
v 1.000000 0.212588 1.500000
v -1.000000 0.212588 1.500000
v 1.000000 0.006170 1.719425
v -1.000000 0.000000 1.725984
vt 0.375000 0.187500
vt 0.625000 0.250000
vt 0.375000 0.250000
vt 0.625000 0.500000
vt 0.375000 0.500000
vt 0.625000 0.687500
vt 0.375000 0.750000
vt 0.375000 0.687500
vt 0.125000 0.750000
vt 0.125000 0.687500
vt 0.875000 0.687500
vt 0.625000 0.750000
vt 0.875000 0.500000
vt 0.625000 0.562500
vt 0.875000 0.562500
vt 0.625000 0.625000
vt 0.875000 0.625000
vt 0.375000 0.562500
vt 0.125000 0.625000
vt 0.125000 0.562500
vt 0.375000 0.625000
vt 0.375000 0.000000
vt 0.625000 0.062500
vt 0.375000 0.062500
vt 0.625000 0.125000
vt 0.375000 0.125000
vt 0.625000 0.187500
vt 0.375000 0.187500
vt 0.625000 0.250000
vt 0.625000 0.187500
vt 0.375000 0.500000
vt 0.375000 0.250000
vt 0.625000 0.687500
vt 0.375000 0.687500
vt 0.375000 1.000000
vt 0.125000 0.687500
vt 0.875000 0.687500
vt 0.625000 0.500000
vt 0.875000 0.562500
vt 0.875000 0.500000
vt 0.625000 0.625000
vt 0.625000 0.562500
vt 0.875000 0.625000
vt 0.125000 0.625000
vt 0.375000 0.562500
vt 0.125000 0.562500
vt 0.375000 0.625000
vt 0.625000 0.062500
vt 0.625000 0.000000
vt 0.375000 0.062500
vt 0.625000 0.125000
vt 0.375000 0.125000
vt 0.375000 0.535072
vt 0.125000 0.562500
vt 0.125000 0.534252
vt 0.375000 0.750000
vt 0.625000 0.687500
vt 0.375000 0.687500
vt 0.125000 0.750000
vt 0.125000 0.687500
vt 0.625000 0.750000
vt 0.875000 0.687500
vt 0.625000 0.500000
vt 0.875000 0.562500
vt 0.875000 0.500000
vt 0.625000 0.625000
vt 0.625000 0.562500
vt 0.875000 0.625000
vt 0.125000 0.625000
vt 0.375000 0.562500
vt 0.125000 0.562500
vt 0.375000 0.625000
vt 0.625000 0.250000
vt 0.375000 0.187500
vt 0.625000 0.187500
vt 0.375000 0.000000
vt 0.625000 0.062500
vt 0.625000 0.000000
vt 0.375000 0.062500
vt 0.625000 0.125000
vt 0.375000 0.125000
vt 0.625000 0.187500
vt 0.625000 0.687500
vt 0.375000 0.687500
vt 0.375000 1.000000
vt 0.125000 0.687500
vt 0.875000 0.687500
vt 0.875000 0.500000
vt 0.625000 0.562500
vt 0.625000 0.500000
vt 0.875000 0.562500
vt 0.625000 0.625000
vt 0.875000 0.625000
vt 0.375000 0.562500
vt 0.125000 0.625000
vt 0.375000 0.625000
vt 0.625000 0.062500
vt 0.375000 0.062500
vt 0.625000 0.125000
vt 0.375000 0.125000
vt 0.125000 0.562500
vt 0.375000 0.535072
vt 0.125000 0.534252
vt 0.625000 0.250000
vt 0.375000 0.187500
vt 0.375000 0.215748
vt 0.375000 0.535072
vt 0.125000 0.534252
vt 0.875000 0.750000
vt 0.625000 1.000000
vt 0.875000 0.750000
vt 0.375000 0.215748
vt 0.625000 1.000000
vt 0.375000 0.562500
vn -1.0000 0.0000 0.0000
vn 0.0000 0.0000 -1.0000
vn 1.0000 0.0000 0.0000
vn 0.0000 -0.9997 0.0248
vn 0.0000 0.9997 -0.0248
vn 0.0000 0.7082 -0.7060
vn 0.0000 0.9006 -0.4347
vn 0.0000 -0.9006 0.4347
vn 0.0000 0.0000 1.0000
vn 0.0000 -0.9997 -0.0248
vn 0.0000 0.9997 0.0248
vn -0.0100 0.7081 0.7060
vn 0.0000 0.9006 0.4347
vn 0.0000 -0.9006 -0.4347
vn -0.0045 0.7284 -0.6852
vn -0.0100 -0.7081 -0.7060
vn 0.0000 -0.7082 0.7060
vn -0.0000 -0.7284 -0.6852
vn -0.0000 0.7284 0.6852
vn -0.0045 -0.7284 0.6852
usemtl None
s off
f 2/1/1 33/2/1 1/3/1
f 1/3/2 34/4/2 35/5/2
f 13/6/3 17/7/3 8/8/3
f 8/8/4 14/9/4 4/10/4
f 5/11/5 18/12/5 13/6/5
f 33/13/6 11/14/6 34/4/6
f 7/15/7 12/16/7 11/14/7
f 6/17/7 13/6/7 12/16/7
f 10/18/8 3/19/8 2/20/8
f 9/21/8 4/10/8 3/19/8
f 34/4/3 10/18/3 35/5/3
f 11/14/3 9/21/3 10/18/3
f 12/16/3 8/8/3 9/21/3
f 14/22/1 5/23/1 4/24/1
f 4/24/1 6/25/1 3/26/1
f 3/26/1 7/27/1 2/1/1
f 21/28/1 50/29/1 26/30/1
f 19/31/9 50/29/9 16/32/9
f 17/7/3 32/33/3 27/34/3
f 14/35/2 18/12/2 17/7/2
f 14/9/10 27/34/10 23/36/10
f 18/12/11 24/37/11 32/33/11
f 20/38/12 26/39/12 50/40/12
f 31/41/13 26/39/13 30/42/13
f 32/33/13 25/43/13 31/41/13
f 22/44/14 29/45/14 21/46/14
f 23/36/14 28/47/14 22/44/14
f 29/45/3 20/38/3 19/31/3
f 28/47/3 30/42/3 29/45/3
f 27/34/3 31/41/3 28/47/3
f 14/22/1 24/48/1 15/49/1
f 23/50/1 25/51/1 24/48/1
f 22/52/1 26/30/1 25/51/1
f 71/53/15 53/54/15 72/55/15
f 51/56/3 47/57/3 42/58/3
f 48/59/11 42/58/11 38/60/11
f 52/61/10 39/62/10 47/57/10
f 35/63/16 41/64/16 1/65/16
f 46/66/14 41/64/14 45/67/14
f 47/57/14 40/68/14 46/66/14
f 37/69/13 44/70/13 36/71/13
f 38/60/13 43/72/13 37/69/13
f 16/73/1 53/74/1 58/75/1
f 43/72/3 45/67/3 44/70/3
f 42/58/3 46/66/3 43/72/3
f 48/76/1 39/77/1 49/78/1
f 38/79/1 40/80/1 39/77/1
f 37/81/1 41/82/1 40/80/1
f 64/83/3 51/56/3 59/84/3
f 52/61/2 48/85/2 51/56/2
f 59/84/5 48/59/5 55/86/5
f 56/87/4 52/61/4 64/83/4
f 16/88/17 62/89/17 19/90/17
f 58/91/8 63/92/8 62/89/8
f 57/93/8 64/83/8 63/92/8
f 61/94/7 54/95/7 53/54/7
f 60/96/7 55/86/7 54/95/7
f 62/89/3 60/96/3 61/94/3
f 63/92/3 59/84/3 60/96/3
f 48/76/1 56/97/1 55/98/1
f 55/98/1 57/99/1 54/100/1
f 54/100/1 58/75/1 53/74/1
f 70/101/18 68/102/18 67/103/18
f 1/104/1 36/105/1 66/106/1
f 36/71/19 65/107/19 66/108/19
f 44/70/3 35/63/3 65/107/3
f 61/94/3 19/90/3 62/89/3
f 65/107/20 2/20/20 66/108/20
f 2/1/1 7/27/1 33/2/1
f 1/3/2 33/2/2 34/4/2
f 13/6/3 18/12/3 17/7/3
f 8/8/4 17/7/4 14/9/4
f 5/11/5 15/109/5 18/12/5
f 33/13/6 7/15/6 11/14/6
f 7/15/7 6/17/7 12/16/7
f 6/17/7 5/11/7 13/6/7
f 10/18/8 9/21/8 3/19/8
f 9/21/8 8/8/8 4/10/8
f 34/4/3 11/14/3 10/18/3
f 11/14/3 12/16/3 9/21/3
f 12/16/3 13/6/3 8/8/3
f 14/22/1 15/49/1 5/23/1
f 4/24/1 5/23/1 6/25/1
f 3/26/1 6/25/1 7/27/1
f 21/28/1 16/32/1 50/29/1
f 19/31/9 20/38/9 50/29/9
f 17/7/3 18/12/3 32/33/3
f 14/35/2 15/110/2 18/12/2
f 14/9/10 17/7/10 27/34/10
f 18/12/11 15/109/11 24/37/11
f 20/38/19 30/42/19 26/39/19
f 31/41/13 25/43/13 26/39/13
f 32/33/13 24/37/13 25/43/13
f 22/44/14 28/47/14 29/45/14
f 23/36/14 27/34/14 28/47/14
f 29/45/3 30/42/3 20/38/3
f 28/47/3 31/41/3 30/42/3
f 27/34/3 32/33/3 31/41/3
f 14/22/1 23/50/1 24/48/1
f 23/50/1 22/52/1 25/51/1
f 22/52/1 21/28/1 26/30/1
f 71/53/6 61/94/6 53/54/6
f 51/56/3 52/61/3 47/57/3
f 48/59/11 51/56/11 42/58/11
f 52/61/10 49/111/10 39/62/10
f 35/63/18 45/67/18 41/64/18
f 46/66/14 40/68/14 41/64/14
f 47/57/14 39/62/14 40/68/14
f 37/69/13 43/72/13 44/70/13
f 38/60/13 42/58/13 43/72/13
f 16/73/1 72/112/1 53/74/1
f 43/72/3 46/66/3 45/67/3
f 42/58/3 47/57/3 46/66/3
f 48/76/1 38/79/1 39/77/1
f 38/79/1 37/81/1 40/80/1
f 37/81/1 36/105/1 41/82/1
f 64/83/3 52/61/3 51/56/3
f 52/61/2 49/113/2 48/85/2
f 59/84/5 51/56/5 48/59/5
f 56/87/4 49/111/4 52/61/4
f 16/88/17 58/91/17 62/89/17
f 58/91/8 57/93/8 63/92/8
f 57/93/8 56/87/8 64/83/8
f 61/94/7 60/96/7 54/95/7
f 60/96/7 59/84/7 55/86/7
f 62/89/3 63/92/3 60/96/3
f 63/92/3 64/83/3 59/84/3
f 48/76/1 49/78/1 56/97/1
f 55/98/1 56/97/1 57/99/1
f 54/100/1 57/99/1 58/75/1
f 70/101/18 69/114/18 68/102/18
f 1/104/1 41/82/1 36/105/1
f 36/71/19 44/70/19 65/107/19
f 44/70/3 45/67/3 35/63/3
f 61/94/3 71/53/3 19/90/3
f 65/107/17 10/18/17 2/20/17
o Text
v 0.240614 0.661283 0.345171
v 0.240614 -0.651509 0.345171
v 0.240614 -0.651509 0.156529
v 0.240614 -0.083659 0.156529
v 0.240614 -0.083659 -0.039812
v 0.240614 -0.080358 -0.112413
v 0.240614 -0.070728 -0.178210
v 0.240614 -0.055176 -0.237296
v 0.240614 -0.034110 -0.289766
v 0.240614 -0.007938 -0.335712
v 0.240614 0.022933 -0.375229
v 0.240607 0.058095 -0.408409
v 0.240614 0.097140 -0.435346
v 0.240607 0.139661 -0.456135
v 0.240614 0.185250 -0.470868
v 0.240614 0.233499 -0.479640
v 0.240614 0.284000 -0.482543
v 0.240614 0.335095 -0.479801
v 0.240614 0.384131 -0.471519
v 0.240614 0.430654 -0.457609
v 0.240607 0.474210 -0.437984
v 0.240614 0.514344 -0.412558
v 0.240614 0.550601 -0.381244
v 0.240614 0.582527 -0.343954
v 0.240614 0.609667 -0.300602
v 0.240614 0.631567 -0.251102
v 0.240614 0.647773 -0.195365
v 0.240614 0.657830 -0.133305
v 0.240614 0.661283 -0.064836
v 0.240614 0.491891 0.156529
v 0.240614 0.491891 -0.064836
v 0.240614 0.489790 -0.105218
v 0.240614 0.483745 -0.140861
v 0.240614 0.474145 -0.172000
v 0.240614 0.461377 -0.198867
v 0.240614 0.445829 -0.221698
v 0.240614 0.427887 -0.240725
v 0.240614 0.407941 -0.256183
v 0.240614 0.386377 -0.268307
v 0.240614 0.363583 -0.277329
v 0.240607 0.339947 -0.283483
v 0.240614 0.315857 -0.287004
v 0.240607 0.291699 -0.288126
v 0.240614 0.260150 -0.286265
v 0.240614 0.230993 -0.280774
v 0.240614 0.204296 -0.271794
v 0.240614 0.180126 -0.259466
v 0.240614 0.158548 -0.243930
v 0.240614 0.139631 -0.225326
v 0.240614 0.123441 -0.203794
v 0.240614 0.110044 -0.179475
v 0.240614 0.099509 -0.152510
v 0.240614 0.091900 -0.123038
v 0.240614 0.087286 -0.091200
v 0.240614 0.085733 -0.057136
v 0.240614 0.085733 0.156529
v -0.240614 0.661283 0.345171
v -0.240614 -0.651509 0.345171
v -0.240614 -0.651509 0.156529
v -0.240614 -0.083659 0.156529
v -0.240614 -0.083659 -0.039812
v -0.240614 -0.080358 -0.112413
v -0.240614 -0.070728 -0.178210
v -0.240614 -0.055176 -0.237296
v -0.240614 -0.034110 -0.289766
v -0.240614 -0.007938 -0.335712
v -0.240614 0.022933 -0.375229
v -0.240607 0.058095 -0.408409
v -0.240614 0.097140 -0.435346
v -0.240607 0.139661 -0.456135
v -0.240614 0.185250 -0.470868
v -0.240614 0.233499 -0.479640
v -0.240614 0.284000 -0.482543
v -0.240614 0.335095 -0.479801
v -0.240614 0.384131 -0.471519
v -0.240614 0.430654 -0.457609
v -0.240607 0.474210 -0.437984
v -0.240614 0.514344 -0.412558
v -0.240614 0.550601 -0.381244
v -0.240614 0.582527 -0.343954
v -0.240614 0.609667 -0.300602
v -0.240614 0.631567 -0.251102
v -0.240614 0.647773 -0.195365
v -0.240614 0.657830 -0.133305
v -0.240614 0.661283 -0.064836
v -0.240614 0.491891 0.156529
v -0.240614 0.491891 -0.064836
v -0.240614 0.489790 -0.105218
v -0.240614 0.483745 -0.140861
v -0.240614 0.474145 -0.172000
v -0.240614 0.461377 -0.198867
v -0.240614 0.445829 -0.221698
v -0.240614 0.427887 -0.240725
v -0.240614 0.407941 -0.256183
v -0.240614 0.386377 -0.268307
v -0.240614 0.363583 -0.277329
v -0.240607 0.339947 -0.283483
v -0.240614 0.315857 -0.287004
v -0.240607 0.291699 -0.288126
v -0.240614 0.260150 -0.286265
v -0.240614 0.230993 -0.280774
v -0.240614 0.204296 -0.271794
v -0.240614 0.180126 -0.259466
v -0.240614 0.158548 -0.243930
v -0.240614 0.139631 -0.225326
v -0.240614 0.123441 -0.203794
v -0.240614 0.110044 -0.179475
v -0.240614 0.099509 -0.152510
v -0.240614 0.091900 -0.123038
v -0.240614 0.087286 -0.091200
v -0.240614 0.085734 -0.057136
v -0.240614 0.085734 0.156529
vt 0.018182 0.000000
vt 0.527273 0.000000
vt 0.000000 0.000000
vt 0.509091 0.000000
vt 0.490909 0.000000
vt 0.472727 0.000000
vt 0.454545 0.000000
vt 0.436364 0.000000
vt 0.418182 0.000000
vt 0.400000 0.000000
vt 0.381818 0.000000
vt 0.545455 0.000000
vt 0.363636 0.000000
vt 1.000000 0.000000
vt 0.563636 0.000000
vt 0.581818 0.000000
vt 0.600000 0.000000
vt 0.345455 0.000000
vt 0.618182 0.000000
vt 0.636364 0.000000
vt 0.654545 0.000000
vt 0.327273 0.000000
vt 0.672727 0.000000
vt 0.690909 0.000000
vt 0.709091 0.000000
vt 0.309091 0.000000
vt 0.727273 0.000000
vt 0.745455 0.000000
vt 0.290909 0.000000
vt 0.763636 0.000000
vt 0.781818 0.000000
vt 0.272727 0.000000
vt 0.800000 0.000000
vt 0.254545 0.000000
vt 0.818182 0.000000
vt 0.836364 0.000000
vt 0.236364 0.000000
vt 0.854545 0.000000
vt 0.872727 0.000000
vt 0.218182 0.000000
vt 0.890909 0.000000
vt 0.909091 0.000000
vt 0.927273 0.000000
vt 0.945455 0.000000
vt 0.200000 0.000000
vt 0.963636 0.000000
vt 0.981818 0.000000
vt 0.054545 0.000000
vt 0.181818 0.000000
vt 0.163636 0.000000
vt 0.145455 0.000000
vt 0.127273 0.000000
vt 0.109091 0.000000
vt 0.090909 0.000000
vt 0.072727 0.000000
vt 0.036364 0.000000
vt 0.018182 0.000000
vt 0.000000 0.000000
vt 0.527273 0.000000
vt 0.509091 0.000000
vt 0.490909 0.000000
vt 0.472727 0.000000
vt 0.454545 0.000000
vt 0.436364 0.000000
vt 0.418182 0.000000
vt 0.400000 0.000000
vt 0.381818 0.000000
vt 0.545455 0.000000
vt 0.363636 0.000000
vt 1.000000 0.000000
vt 0.563636 0.000000
vt 0.581818 0.000000
vt 0.600000 0.000000
vt 0.345455 0.000000
vt 0.618182 0.000000
vt 0.636364 0.000000
vt 0.654545 0.000000
vt 0.327273 0.000000
vt 0.672727 0.000000
vt 0.690909 0.000000
vt 0.709091 0.000000
vt 0.309091 0.000000
vt 0.727273 0.000000
vt 0.745455 0.000000
vt 0.290909 0.000000
vt 0.763636 0.000000
vt 0.781818 0.000000
vt 0.272727 0.000000
vt 0.800000 0.000000
vt 0.254545 0.000000
vt 0.818182 0.000000
vt 0.836364 0.000000
vt 0.236364 0.000000
vt 0.854545 0.000000
vt 0.872727 0.000000
vt 0.218182 0.000000
vt 0.890909 0.000000
vt 0.909091 0.000000
vt 0.927273 0.000000
vt 0.945455 0.000000
vt 0.200000 0.000000
vt 0.963636 0.000000
vt 0.981818 0.000000
vt 0.054545 0.000000
vt 0.181818 0.000000
vt 0.163636 0.000000
vt 0.145455 0.000000
vt 0.127273 0.000000
vt 0.109091 0.000000
vt 0.090909 0.000000
vt 0.072727 0.000000
vt 0.036364 0.000000
vn 1.0000 -0.0000 -0.0000
vn 1.0000 -0.0002 -0.0000
vn 1.0000 0.0043 -0.0002
vn 1.0000 0.0002 -0.0000
vn 1.0000 0.0001 -0.0000
vn 1.0000 -0.0003 0.0000
vn 1.0000 0.0003 0.0000
vn 1.0000 -0.0001 -0.0000
vn 1.0000 0.0003 0.0001
vn -1.0000 0.0000 0.0000
vn -1.0000 -0.0002 -0.0000
vn -1.0000 0.0043 -0.0002
vn -1.0000 0.0002 -0.0000
vn -1.0000 0.0001 -0.0000
vn -1.0000 -0.0003 0.0000
vn -1.0000 0.0003 0.0000
vn -1.0000 -0.0001 -0.0000
vn -1.0000 0.0003 0.0001
vn 0.0000 0.0000 1.0000
vn 0.0000 1.0000 -0.0000
vn -0.0000 0.9987 -0.0504
vn -0.0000 0.9871 -0.1600
vn -0.0000 0.9602 -0.2792
vn 0.0000 0.9145 -0.4046
vn 0.0000 0.8476 -0.5306
vn 0.0000 0.7596 -0.6504
vn 0.0000 0.6536 -0.7568
vn 0.0000 -1.0000 0.0000
vn 0.0000 0.5352 -0.8447
vn -0.0000 0.0000 -1.0000
vn 0.0000 -0.9986 0.0520
vn 0.0000 -0.9859 0.1672
vn 0.0000 -0.9556 0.2946
vn 0.0000 0.4108 -0.9117
vn 0.0000 -0.9032 0.4292
vn 0.0000 -0.8265 0.5629
vn 0.0000 -0.7276 0.6860
vn 0.0000 0.2865 -0.9581
vn 0.0000 -0.6126 0.7904
vn 0.0000 -0.4901 0.8717
vn 0.0000 -0.3680 0.9298
vn 0.0000 0.1665 -0.9860
vn 0.0000 -0.2520 0.9677
vn 0.0000 -0.1446 0.9895
vn 0.0000 0.0536 -0.9986
vn 0.0000 -0.0464 0.9989
vn 0.0000 0.0589 0.9983
vn 0.0000 -0.0574 -0.9984
vn 0.0000 0.1851 0.9827
vn 0.0000 -0.1789 -0.9839
vn 0.0000 0.3188 0.9478
vn 0.0000 0.4544 0.8908
vn -0.0000 -0.3075 -0.9515
vn 0.0000 0.5843 0.8115
vn 0.0000 0.7012 0.7130
vn 0.0000 -0.4392 -0.8984
vn 0.0000 0.7993 0.6010
vn 0.0000 0.8759 0.4825
vn 0.0000 0.9314 0.3639
vn 0.0000 0.9683 0.2500
vn 0.0000 -0.5679 -0.8231
vn 0.0000 0.9897 0.1434
vn 0.0000 0.9990 0.0455
vn 0.0000 -0.6863 -0.7273
vn -0.0000 -0.7880 -0.6156
vn -0.0000 -0.8689 -0.4950
vn -0.0000 -0.9280 -0.3726
vn -0.0000 -0.9671 -0.2545
vn -0.0000 -0.9895 -0.1448
vn -0.0000 -0.9990 -0.0454
usemtl None
s off
f 74/115/21 102/116/21 73/117/21
f 102/116/21 101/118/21 73/117/21
f 102/116/21 100/119/21 101/118/21
f 102/116/21 99/120/21 100/119/21
f 102/116/21 98/121/21 99/120/21
f 102/116/21 97/122/21 98/121/21
f 102/116/21 96/123/21 97/122/21
f 102/116/21 95/124/21 96/123/21
f 102/116/21 94/125/21 95/124/21
f 102/116/21 103/126/21 94/125/21
f 103/126/22 93/127/22 94/125/22
f 74/115/21 128/128/21 102/116/21
f 104/129/23 93/127/23 103/126/23
f 105/130/24 93/127/24 104/129/24
f 106/131/25 93/127/25 105/130/25
f 106/131/24 92/132/24 93/127/24
f 107/133/21 92/132/21 106/131/21
f 108/134/21 92/132/21 107/133/21
f 109/135/21 92/132/21 108/134/21
f 109/135/21 91/136/21 92/132/21
f 110/137/21 91/136/21 109/135/21
f 111/138/21 91/136/21 110/137/21
f 112/139/21 91/136/21 111/138/21
f 112/139/21 90/140/21 91/136/21
f 113/141/26 90/140/26 112/139/26
f 114/142/27 90/140/27 113/141/27
f 114/142/21 89/143/21 90/140/21
f 115/144/26 89/143/26 114/142/26
f 116/145/24 89/143/24 115/144/24
f 116/145/21 88/146/21 89/143/21
f 117/147/21 88/146/21 116/145/21
f 117/147/21 87/148/21 88/146/21
f 118/149/21 87/148/21 117/147/21
f 119/150/21 87/148/21 118/149/21
f 119/150/22 86/151/22 87/148/22
f 120/152/21 86/151/21 119/150/21
f 121/153/21 86/151/21 120/152/21
f 121/153/24 85/154/24 86/151/24
f 122/155/21 85/154/21 121/153/21
f 123/156/21 85/154/21 122/155/21
f 124/157/21 85/154/21 123/156/21
f 125/158/21 85/154/21 124/157/21
f 125/158/22 84/159/22 85/154/22
f 126/160/28 84/159/28 125/158/28
f 127/161/22 84/159/22 126/160/22
f 74/115/21 76/162/21 128/128/21
f 76/162/21 127/161/21 128/128/21
f 76/162/21 84/159/21 127/161/21
f 76/162/29 83/163/29 84/159/29
f 76/162/21 82/164/21 83/163/21
f 76/162/21 81/165/21 82/164/21
f 76/162/21 80/166/21 81/165/21
f 76/162/21 79/167/21 80/166/21
f 76/162/21 78/168/21 79/167/21
f 76/162/21 77/169/21 78/168/21
f 74/115/21 75/170/21 76/162/21
f 130/171/30 129/172/30 158/173/30
f 158/173/30 129/172/30 157/174/30
f 158/173/30 157/174/30 156/175/30
f 158/173/30 156/175/30 155/176/30
f 158/173/30 155/176/30 154/177/30
f 158/173/30 154/177/30 153/178/30
f 158/173/30 153/178/30 152/179/30
f 158/173/30 152/179/30 151/180/30
f 158/173/30 151/180/30 150/181/30
f 158/173/30 150/181/30 159/182/30
f 159/182/31 150/181/31 149/183/31
f 130/171/30 158/173/30 184/184/30
f 160/185/32 159/182/32 149/183/32
f 161/186/33 160/185/33 149/183/33
f 162/187/34 161/186/34 149/183/34
f 162/187/33 149/183/33 148/188/33
f 163/189/30 162/187/30 148/188/30
f 164/190/30 163/189/30 148/188/30
f 165/191/30 164/190/30 148/188/30
f 165/191/30 148/188/30 147/192/30
f 166/193/30 165/191/30 147/192/30
f 167/194/30 166/193/30 147/192/30
f 168/195/30 167/194/30 147/192/30
f 168/195/30 147/192/30 146/196/30
f 169/197/35 168/195/35 146/196/35
f 170/198/36 169/197/36 146/196/36
f 170/198/30 146/196/30 145/199/30
f 171/200/35 170/198/35 145/199/35
f 172/201/33 171/200/33 145/199/33
f 172/201/30 145/199/30 144/202/30
f 173/203/30 172/201/30 144/202/30
f 173/203/30 144/202/30 143/204/30
f 174/205/30 173/203/30 143/204/30
f 175/206/30 174/205/30 143/204/30
f 175/206/31 143/204/31 142/207/31
f 176/208/30 175/206/30 142/207/30
f 177/209/30 176/208/30 142/207/30
f 177/209/33 142/207/33 141/210/33
f 178/211/30 177/209/30 141/210/30
f 179/212/30 178/211/30 141/210/30
f 180/213/30 179/212/30 141/210/30
f 181/214/30 180/213/30 141/210/30
f 181/214/31 141/210/31 140/215/31
f 182/216/37 181/214/37 140/215/37
f 183/217/31 182/216/31 140/215/31
f 130/171/30 184/184/30 132/218/30
f 132/218/30 184/184/30 183/217/30
f 132/218/30 183/217/30 140/215/30
f 132/218/38 140/215/38 139/219/38
f 132/218/30 139/219/30 138/220/30
f 132/218/30 138/220/30 137/221/30
f 132/218/30 137/221/30 136/222/30
f 132/218/30 136/222/30 135/223/30
f 132/218/30 135/223/30 134/224/30
f 132/218/30 134/224/30 133/225/30
f 130/171/30 132/218/30 131/226/30
f 74/115/39 73/117/39 129/172/39 130/171/39
f 73/117/40 101/118/40 157/174/40 129/172/40
f 101/118/41 100/119/41 156/175/41 157/174/41
f 100/119/42 99/120/42 155/176/42 156/175/42
f 99/120/43 98/121/43 154/177/43 155/176/43
f 98/121/44 97/122/44 153/178/44 154/177/44
f 97/122/45 96/123/45 152/179/45 153/178/45
f 96/123/46 95/124/46 151/180/46 152/179/46
f 95/124/47 94/125/47 150/181/47 151/180/47
f 103/126/48 102/116/48 158/173/48 159/182/48
f 94/125/49 93/127/49 149/183/49 150/181/49
f 102/116/50 128/128/50 184/184/50 158/173/50
f 104/129/51 103/126/51 159/182/51 160/185/51
f 105/130/52 104/129/52 160/185/52 161/186/52
f 106/131/53 105/130/53 161/186/53 162/187/53
f 93/127/54 92/132/54 148/188/54 149/183/54
f 107/133/55 106/131/55 162/187/55 163/189/55
f 108/134/56 107/133/56 163/189/56 164/190/56
f 109/135/57 108/134/57 164/190/57 165/191/57
f 92/132/58 91/136/58 147/192/58 148/188/58
f 110/137/59 109/135/59 165/191/59 166/193/59
f 111/138/60 110/137/60 166/193/60 167/194/60
f 112/139/61 111/138/61 167/194/61 168/195/61
f 91/136/62 90/140/62 146/196/62 147/192/62
f 113/141/63 112/139/63 168/195/63 169/197/63
f 114/142/64 113/141/64 169/197/64 170/198/64
f 90/140/65 89/143/65 145/199/65 146/196/65
f 115/144/66 114/142/66 170/198/66 171/200/66
f 116/145/67 115/144/67 171/200/67 172/201/67
f 89/143/68 88/146/68 144/202/68 145/199/68
f 117/147/69 116/145/69 172/201/69 173/203/69
f 88/146/70 87/148/70 143/204/70 144/202/70
f 118/149/71 117/147/71 173/203/71 174/205/71
f 119/150/72 118/149/72 174/205/72 175/206/72
f 87/148/73 86/151/73 142/207/73 143/204/73
f 120/152/74 119/150/74 175/206/74 176/208/74
f 121/153/75 120/152/75 176/208/75 177/209/75
f 86/151/76 85/154/76 141/210/76 142/207/76
f 122/155/77 121/153/77 177/209/77 178/211/77
f 123/156/78 122/155/78 178/211/78 179/212/78
f 124/157/79 123/156/79 179/212/79 180/213/79
f 125/158/80 124/157/80 180/213/80 181/214/80
f 85/154/81 84/159/81 140/215/81 141/210/81
f 126/160/82 125/158/82 181/214/82 182/216/82
f 127/161/83 126/160/83 182/216/83 183/217/83
f 128/128/40 127/161/40 183/217/40 184/184/40
f 84/159/84 83/163/84 139/219/84 140/215/84
f 83/163/85 82/164/85 138/220/85 139/219/85
f 82/164/86 81/165/86 137/221/86 138/220/86
f 81/165/87 80/166/87 136/222/87 137/221/87
f 80/166/88 79/167/88 135/223/88 136/222/88
f 79/167/89 78/168/89 134/224/89 135/223/89
f 77/169/48 76/162/48 132/218/48 133/225/48
f 78/168/90 77/169/90 133/225/90 134/224/90
f 75/170/48 74/115/48 130/171/48 131/226/48
f 76/162/50 75/170/50 131/226/50 132/218/50
